<svg xmlns="http://www.w3.org/2000/svg" xmlns:svgjs="http://svgjs.dev/svgjs" xmlns:xlink="http://www.w3.org/1999/xlink" width="1500" height="1500" version="1.1" viewBox="0 0 1500 1500"><rect width="1500" height="1500" fill="#fff"/><g transform="matrix(0.6666666666666666,0,0,0.6666666666666666,250.5787472748408,371.63994601889334)"><svg xmlns="http://www.w3.org/2000/svg" xmlns:xlink="http://www.w3.org/1999/xlink" width="1500" height="1136" data-background-color="#110f10" preserveAspectRatio="xMidYMid meet" viewBox="0 0 326 247"><g id="tight-bounds" transform="matrix(1,0,0,1,-0.18867161159809598,-0.09999999999999432)"><svg width="326.377" height="247.2" viewBox="0 0 326.377 247.2"><g><svg width="326.377" height="247.2" viewBox="0 0 326.377 247.2"><g><svg width="326.377" height="247.2" viewBox="0 0 326.377 247.2"><g id="textblocktransform"><svg id="textblock" width="326.377" height="247.2" viewBox="0 0 326.377 247.2"><g><svg width="326.377" height="247.2" viewBox="0 0 326.377 247.2"><g transform="matrix(1,0,0,1,0,0)"><svg width="326.377" height="247.2" data-palette-color="#ccf983" viewBox="3.25 -35.45 47.8 36.21"><path id="text-0" fill="#000" d="M10.25-35.01L10.25 0 3.25 0 3.25-35.01 10.25-35.01ZM51.05-17.36L51.05-17.36Q51.05-14.87 50.4-12.56 49.75-10.25 48.58-8.24 47.41-6.23 45.75-4.57 44.09-2.91 42.09-1.72 40.09-0.54 37.77 0.11 35.45 0.76 32.96 0.76L32.96 0.76Q30.47 0.76 28.16 0.11 25.85-0.54 23.84-1.72 21.82-2.91 20.16-4.57 18.5-6.23 17.32-8.24 16.14-10.25 15.49-12.56 14.84-14.87 14.84-17.36L14.84-17.36Q14.84-19.85 15.49-22.17 16.14-24.49 17.32-26.49 18.5-28.49 20.16-30.15 21.82-31.81 23.84-32.98 25.85-34.16 28.16-34.8 30.47-35.45 32.96-35.45L32.96-35.45Q35.45-35.45 37.77-34.8 40.09-34.16 42.09-32.98 44.09-31.81 45.75-30.15 47.41-28.49 48.58-26.49 49.75-24.49 50.4-22.17 51.05-19.85 51.05-17.36ZM44.09-17.36L44.09-17.36Q44.09-19.65 43.21-21.69 42.33-23.73 40.83-25.23 39.33-26.73 37.29-27.61 35.25-28.49 32.96-28.49L32.96-28.49Q30.64-28.49 28.61-27.61 26.58-26.73 25.07-25.23 23.56-23.73 22.68-21.69 21.8-19.65 21.8-17.36L21.8-17.36Q21.8-15.06 22.68-13.05 23.56-11.04 25.07-9.52 26.58-8.01 28.61-7.13 30.64-6.25 32.96-6.25L32.96-6.25Q35.25-6.25 37.29-7.13 39.33-8.01 40.83-9.52 42.33-11.04 43.21-13.05 44.09-15.06 44.09-17.36Z" class="wordmark-text-0" data-fill-palette-color="primary" opacity="1" transform="matrix(1,0,0,1,0,0)"/></svg></g></svg></g></svg></g></svg></g></svg></g></svg><rect width="326.377" height="247.2" fill="none" stroke="none" visibility="hidden"/></g></svg></g></svg>