<svg xmlns="http://www.w3.org/2000/svg" xmlns:svgjs="http://svgjs.dev/svgjs" xmlns:xlink="http://www.w3.org/1999/xlink" width="1500" height="1500" version="1.1" viewBox="0 0 1500 1500"><rect width="1500" height="1500" fill="#000"/><g transform="matrix(0.6666666666666666,0,0,0.6666666666666666,249.39393939393932,619.9479726171669)"><svg xmlns="http://www.w3.org/2000/svg" xmlns:xlink="http://www.w3.org/1999/xlink" width="1500" height="390" data-background-color="#110f10" preserveAspectRatio="xMidYMid meet" viewBox="0 0 396 103"><g id="tight-bounds" transform="matrix(1,0,0,1,0.24000000000003752,0.020610847814651834)"><svg width="395.52" height="102.959" viewBox="0 0 395.52 102.959"><g><svg width="395.52" height="102.959" viewBox="0 0 395.52 102.959"><g><svg width="395.52" height="102.959" viewBox="0 0 395.52 102.959"><g id="textblocktransform"><svg id="textblock" width="395.52" height="102.959" viewBox="0 0 395.52 102.959"><g><svg width="395.52" height="102.959" viewBox="0 0 395.52 102.959"><g transform="matrix(1,0,0,1,0,0)"><svg width="395.52" height="102.959" data-palette-color="#cef196" viewBox="3.25 -35.45 139.07 36.21"><path id="text-0" fill="#fff" d="M10.25-35.01L10.25 0 3.25 0 3.25-35.01 10.25-35.01ZM44.8-17.5L44.8-17.5Q44.8-15.09 44.17-12.85 43.55-10.62 42.4-8.68 41.26-6.74 39.67-5.14 38.08-3.54 36.13-2.39 34.18-1.25 31.94-0.62 29.71 0 27.29 0L27.29 0 16.75 0 16.75-35.01 27.29-35.01Q29.71-35.01 31.94-34.39 34.18-33.76 36.13-32.62 38.08-31.47 39.67-29.87 41.26-28.27 42.4-26.33 43.55-24.39 44.17-22.16 44.8-19.92 44.8-17.5ZM37.79-17.5L37.79-17.5Q37.79-19.68 36.97-21.58 36.15-23.49 34.73-24.91 33.3-26.34 31.38-27.17 29.47-28 27.29-28L27.29-28 23.8-28 23.8-7.01 27.29-7.01Q29.47-7.01 31.38-7.82 33.3-8.64 34.73-10.07 36.15-11.5 36.97-13.42 37.79-15.33 37.79-17.5ZM73.43-7.01L73.43 0 49.43 0 49.43-35.01 73.43-35.01 73.43-28 56.44-28 56.44-21 67.94-21 67.94-13.99 56.44-13.99 56.44-7.01 73.43-7.01ZM111.78-17.36L111.78-17.36Q111.78-14.87 111.14-12.56 110.49-10.25 109.32-8.24 108.15-6.23 106.49-4.57 104.83-2.91 102.82-1.72 100.82-0.54 98.5 0.11 96.18 0.76 93.69 0.76L93.69 0.76Q91.2 0.76 88.9 0.11 86.59-0.54 84.58-1.72 82.56-2.91 80.9-4.57 79.24-6.23 78.06-8.24 76.87-10.25 76.23-12.56 75.58-14.87 75.58-17.36L75.58-17.36Q75.58-19.85 76.23-22.17 76.87-24.49 78.06-26.49 79.24-28.49 80.9-30.15 82.56-31.81 84.58-32.98 86.59-34.16 88.9-34.8 91.2-35.45 93.69-35.45L93.69-35.45Q96.18-35.45 98.5-34.8 100.82-34.16 102.82-32.98 104.83-31.81 106.49-30.15 108.15-28.49 109.32-26.49 110.49-24.49 111.14-22.17 111.78-19.85 111.78-17.36ZM104.83-17.36L104.83-17.36Q104.83-19.65 103.95-21.69 103.07-23.73 101.57-25.23 100.07-26.73 98.03-27.61 95.99-28.49 93.69-28.49L93.69-28.49Q91.37-28.49 89.35-27.61 87.32-26.73 85.81-25.23 84.29-23.73 83.42-21.69 82.54-19.65 82.54-17.36L82.54-17.36Q82.54-15.06 83.42-13.05 84.29-11.04 85.81-9.52 87.32-8.01 89.35-7.13 91.37-6.25 93.69-6.25L93.69-6.25Q95.99-6.25 98.03-7.13 100.07-8.01 101.57-9.52 103.07-11.04 103.95-13.05 104.83-15.06 104.83-17.36ZM114.32-24.51L114.32-24.51Q114.32-26.68 115.15-28.59 115.98-30.49 117.41-31.92 118.84-33.35 120.74-34.18 122.65-35.01 124.82-35.01L124.82-35.01 140.88-35.01 140.88-28 124.82-28Q124.09-28 123.45-27.73 122.82-27.47 122.34-26.99 121.87-26.51 121.6-25.88 121.33-25.24 121.33-24.51L121.33-24.51Q121.33-23.78 121.6-23.13 121.87-22.49 122.34-22.01 122.82-21.53 123.45-21.26 124.09-21 124.82-21L124.82-21 131.83-21Q134-21 135.92-20.18 137.83-19.36 139.26-17.93 140.69-16.5 141.51-14.59 142.32-12.67 142.32-10.5L142.32-10.5Q142.32-8.33 141.51-6.42 140.69-4.52 139.26-3.09 137.83-1.66 135.92-0.83 134 0 131.83 0L131.83 0 116.27 0 116.27-7.01 131.83-7.01Q132.56-7.01 133.19-7.28 133.83-7.54 134.3-8.02 134.78-8.5 135.05-9.13 135.32-9.77 135.32-10.5L135.32-10.5Q135.32-11.23 135.05-11.87 134.78-12.5 134.3-12.98 133.83-13.45 133.19-13.72 132.56-13.99 131.83-13.99L131.83-13.99 124.82-13.99Q122.65-13.99 120.74-14.82 118.84-15.65 117.41-17.08 115.98-18.51 115.15-20.42 114.32-22.34 114.32-24.51Z" class="wordmark-text-0" data-fill-palette-color="primary" opacity="1" transform="matrix(1,0,0,1,0,0)"/></svg></g></svg></g></svg></g></svg></g></svg></g></svg><rect width="395.52" height="102.959" fill="none" stroke="none" visibility="hidden"/></g></svg></g></svg>