<svg xmlns="http://www.w3.org/2000/svg" version="1.1" xmlns:xlink="http://www.w3.org/1999/xlink" xmlns:svgjs="http://svgjs.dev/svgjs" width="1500" height="1500" viewBox="0 0 1500 1500"><rect width="1500" height="1500" fill="#110f10"></rect><g transform="matrix(0.6666666666666666,0,0,0.6666666666666666,249.39393939393938,666.1663831137315)"><svg viewBox="0 0 396 67" data-background-color="#110f10" preserveAspectRatio="xMidYMid meet" height="253" width="1500" xmlns="http://www.w3.org/2000/svg" xmlns:xlink="http://www.w3.org/1999/xlink"><g id="tight-bounds" transform="matrix(1,0,0,1,0.2400000000000091,-0.1985039641502908)"><svg viewBox="0 0 395.52 67.39700792830058" height="67.39700792830058" width="395.52"><g><svg viewBox="0 0 395.52 67.39700792830058" height="67.39700792830058" width="395.52"><g><svg viewBox="0 0 395.52 67.39700792830058" height="67.39700792830058" width="395.52"><g id="textblocktransform"><svg viewBox="0 0 395.52 67.39700792830058" height="67.39700792830058" width="395.52" id="textblock"><g><svg viewBox="0 0 395.52 67.39700792830058" height="67.39700792830058" width="395.52"><g transform="matrix(1,0,0,1,0,0)"><svg width="395.52" viewBox="3.25 -35.45 212.46 36.21" height="67.39700792830058" data-palette-color="#baff4c"><path d="M31.25-35.01L31.25 0 23.75 0 10.25-23.05 10.25 0 3.25 0 3.25-35.01 10.74-35.01 24.24-11.94 24.24-35.01 31.25-35.01ZM72.04-17.36L72.04-17.36Q72.04-14.87 71.4-12.56 70.75-10.25 69.58-8.24 68.41-6.23 66.75-4.57 65.09-2.91 63.08-1.72 61.08-0.54 58.76 0.11 56.44 0.76 53.95 0.76L53.95 0.76Q51.46 0.76 49.16 0.11 46.85-0.54 44.83-1.72 42.82-2.91 41.16-4.57 39.5-6.23 38.32-8.24 37.13-10.25 36.48-12.56 35.84-14.87 35.84-17.36L35.84-17.36Q35.84-19.85 36.48-22.17 37.13-24.49 38.32-26.49 39.5-28.49 41.16-30.15 42.82-31.81 44.83-32.98 46.85-34.16 49.16-34.8 51.46-35.45 53.95-35.45L53.95-35.45Q56.44-35.45 58.76-34.8 61.08-34.16 63.08-32.98 65.09-31.81 66.75-30.15 68.41-28.49 69.58-26.49 70.75-24.49 71.4-22.17 72.04-19.85 72.04-17.36ZM65.09-17.36L65.09-17.36Q65.09-19.65 64.21-21.69 63.33-23.73 61.83-25.23 60.32-26.73 58.29-27.61 56.25-28.49 53.95-28.49L53.95-28.49Q51.63-28.49 49.61-27.61 47.58-26.73 46.07-25.23 44.55-23.73 43.67-21.69 42.8-19.65 42.8-17.36L42.8-17.36Q42.8-15.06 43.67-13.05 44.55-11.04 46.07-9.52 47.58-8.01 49.61-7.13 51.63-6.25 53.95-6.25L53.95-6.25Q56.25-6.25 58.29-7.13 60.32-8.01 61.83-9.52 63.33-11.04 64.21-13.05 65.09-15.06 65.09-17.36ZM83.64-35.01L83.64 0 76.63 0 76.63-35.01 83.64-35.01ZM118.18-17.5L118.18-17.5Q118.18-15.09 117.56-12.85 116.94-10.62 115.79-8.68 114.64-6.74 113.05-5.14 111.47-3.54 109.51-2.39 107.56-1.25 105.33-0.62 103.09 0 100.68 0L100.68 0 90.13 0 90.13-35.01 100.68-35.01Q103.09-35.01 105.33-34.39 107.56-33.76 109.51-32.62 111.47-31.47 113.05-29.87 114.64-28.27 115.79-26.33 116.94-24.39 117.56-22.16 118.18-19.92 118.18-17.5ZM111.17-17.5L111.17-17.5Q111.17-19.68 110.36-21.58 109.54-23.49 108.11-24.91 106.68-26.34 104.77-27.17 102.85-28 100.68-28L100.68-28 97.18-28 97.18-7.01 100.68-7.01Q102.85-7.01 104.77-7.82 106.68-8.64 108.11-10.07 109.54-11.5 110.36-13.42 111.17-15.33 111.17-17.5ZM146.82-7.01L146.82 0 122.82 0 122.82-35.01 146.82-35.01 146.82-28 129.82-28 129.82-21 141.32-21 141.32-13.99 129.82-13.99 129.82-7.01 146.82-7.01ZM185.17-17.36L185.17-17.36Q185.17-14.87 184.52-12.56 183.87-10.25 182.7-8.24 181.53-6.23 179.87-4.57 178.21-2.91 176.21-1.72 174.21-0.54 171.89 0.11 169.57 0.76 167.08 0.76L167.08 0.76Q164.59 0.76 162.28 0.11 159.97-0.54 157.96-1.72 155.94-2.91 154.28-4.57 152.62-6.23 151.44-8.24 150.26-10.25 149.61-12.56 148.96-14.87 148.96-17.36L148.96-17.36Q148.96-19.85 149.61-22.17 150.26-24.49 151.44-26.49 152.62-28.49 154.28-30.15 155.94-31.81 157.96-32.98 159.97-34.16 162.28-34.8 164.59-35.45 167.08-35.45L167.08-35.45Q169.57-35.45 171.89-34.8 174.21-34.16 176.21-32.98 178.21-31.81 179.87-30.15 181.53-28.49 182.7-26.49 183.87-24.49 184.52-22.17 185.17-19.85 185.17-17.36ZM178.21-17.36L178.21-17.36Q178.21-19.65 177.33-21.69 176.45-23.73 174.95-25.23 173.45-26.73 171.41-27.61 169.37-28.49 167.08-28.49L167.08-28.49Q164.76-28.49 162.73-27.61 160.71-26.73 159.19-25.23 157.68-23.73 156.8-21.69 155.92-19.65 155.92-17.36L155.92-17.36Q155.92-15.06 156.8-13.05 157.68-11.04 159.19-9.52 160.71-8.01 162.73-7.13 164.76-6.25 167.08-6.25L167.08-6.25Q169.37-6.25 171.41-7.13 173.45-8.01 174.95-9.52 176.45-11.04 177.33-13.05 178.21-15.06 178.21-17.36ZM187.7-24.51L187.7-24.51Q187.7-26.68 188.53-28.59 189.36-30.49 190.79-31.92 192.22-33.35 194.13-34.18 196.03-35.01 198.2-35.01L198.2-35.01 214.27-35.01 214.27-28 198.2-28Q197.47-28 196.84-27.73 196.2-27.47 195.72-26.99 195.25-26.51 194.98-25.88 194.71-25.24 194.71-24.51L194.71-24.51Q194.71-23.78 194.98-23.13 195.25-22.49 195.72-22.01 196.2-21.53 196.84-21.26 197.47-21 198.2-21L198.2-21 205.21-21Q207.38-21 209.3-20.18 211.22-19.36 212.64-17.93 214.07-16.5 214.89-14.59 215.71-12.67 215.71-10.5L215.71-10.5Q215.71-8.33 214.89-6.42 214.07-4.52 212.64-3.09 211.22-1.66 209.3-0.83 207.38 0 205.21 0L205.21 0 189.66 0 189.66-7.01 205.21-7.01Q205.94-7.01 206.58-7.28 207.21-7.54 207.69-8.02 208.16-8.5 208.43-9.13 208.7-9.77 208.7-10.5L208.7-10.5Q208.7-11.23 208.43-11.87 208.16-12.5 207.69-12.98 207.21-13.45 206.58-13.72 205.94-13.99 205.21-13.99L205.21-13.99 198.2-13.99Q196.03-13.99 194.13-14.82 192.22-15.65 190.79-17.08 189.36-18.51 188.53-20.42 187.7-22.34 187.7-24.51Z" opacity="1" transform="matrix(1,0,0,1,0,0)" fill="#baff4c" class="wordmark-text-0" data-fill-palette-color="primary" id="text-0"></path></svg></g></svg></g></svg></g></svg></g></svg></g><defs></defs></svg><rect width="395.52" height="67.39700792830058" fill="none" stroke="none" visibility="hidden"></rect></g></svg></g></svg>